<svg width="33" height="33" viewBox="0 0 33 33" fill="none" xmlns="http://www.w3.org/2000/svg">
<path d="M32.9982 16.4998C32.9982 14.2214 33.0188 11.9636 32.8909 9.68925C32.7629 7.04757 32.1603 4.70308 30.2286 2.77135C28.2927 0.835496 25.9523 0.236991 23.3107 0.109034C21.0322 -0.0189222 18.7744 0.00171602 16.5001 0.00171602C14.2216 0.00171602 11.9638 -0.0189222 9.6895 0.109034C7.04782 0.236991 4.70333 0.839624 2.7716 2.77135C0.835741 4.70721 0.237235 7.04757 0.109278 9.68925C-0.018678 11.9677 0.00196016 14.2255 0.00196016 16.4998C0.00196016 18.7742 -0.018678 21.0361 0.109278 23.3104C0.237235 25.9521 0.839868 28.2966 2.7716 30.2283C4.70745 32.1642 7.04782 32.7627 9.6895 32.8906C11.9679 33.0186 14.2258 32.998 16.5001 32.998C18.7785 32.998 21.0363 33.0186 23.3107 32.8906C25.9523 32.7627 28.2968 32.16 30.2286 30.2283C32.1644 28.2925 32.7629 25.9521 32.8909 23.3104C33.023 21.0361 32.9982 18.7783 32.9982 16.4998Z" fill="white"/>
<path d="M16.4959 24.9656C11.8111 24.9656 8.03015 21.1847 8.03015 16.4998C8.03015 11.815 11.8111 8.03406 16.4959 8.03406C21.1808 8.03406 24.9617 11.815 24.9617 16.4998C24.9617 21.1847 21.1808 24.9656 16.4959 24.9656ZM25.3084 9.66447C24.2146 9.66447 23.3313 8.78116 23.3313 7.68734C23.3313 6.59352 24.2146 5.71021 25.3084 5.71021C26.4022 5.71021 27.2855 6.59352 27.2855 7.68734C27.2859 7.94707 27.2349 8.20431 27.1357 8.44434C27.0364 8.68436 26.8908 8.90245 26.7072 9.08611C26.5235 9.26977 26.3054 9.41539 26.0654 9.51463C25.8254 9.61388 25.5681 9.6648 25.3084 9.66447Z" fill="black"/>
<path d="M16.4959 10.9978C13.4662 10.9978 10.9938 13.4702 10.9938 16.4999C10.9938 19.5296 13.4662 22.0021 16.4959 22.0021C19.5256 22.0021 21.998 19.5296 21.998 16.4999C21.998 13.4702 19.5256 10.9978 16.4959 10.9978Z" fill="white"/>
</svg>
