<svg width="36" height="29" viewBox="0 0 36 29" fill="none" xmlns="http://www.w3.org/2000/svg">
<path d="M36 3.43993C34.6761 4.02123 33.2539 4.41401 31.7588 4.59154C33.3015 3.67684 34.4557 2.23721 35.0059 0.541269C33.5565 1.39435 31.9702 1.99483 30.316 2.3166C29.2036 1.13964 27.7302 0.359535 26.1245 0.0973956C24.5189 -0.164744 22.8708 0.10575 21.4361 0.866882C20.0015 1.62801 18.8606 2.8372 18.1905 4.30671C17.5204 5.77621 17.3587 7.42382 17.7305 8.99373C14.7937 8.84761 11.9207 8.09122 9.29795 6.77363C6.67524 5.45605 4.36141 3.60672 2.50665 1.34567C1.87246 2.42972 1.5078 3.68659 1.5078 5.02516C1.50709 6.23018 1.80655 7.41674 2.37962 8.47956C2.95269 9.54239 3.78164 10.4486 4.79292 11.1178C3.6201 11.0809 2.47315 10.7668 1.44755 10.2019V10.2962C1.44743 11.9862 2.0374 13.6243 3.11735 14.9324C4.1973 16.2406 5.70072 17.1382 7.3725 17.4729C6.28452 17.7647 5.14385 17.8077 4.03664 17.5986C4.50832 19.0528 5.4271 20.3245 6.66437 21.2355C7.90164 22.1466 9.39545 22.6515 10.9367 22.6795C8.32036 24.7147 5.08922 25.8187 1.76306 25.8138C1.17386 25.814 0.585165 25.7799 0 25.7117C3.37625 27.8628 7.30645 29.0044 11.3204 29C24.908 29 32.3359 17.8484 32.3359 8.17676C32.3359 7.86255 32.328 7.54519 32.3138 7.23097C33.7586 6.19558 35.0058 4.91345 35.9968 3.44464L36 3.43993Z" fill="white"/>
</svg>
