<svg width="93" height="93" viewBox="0 0 93 93" fill="none" xmlns="http://www.w3.org/2000/svg">
<g filter="url(#filter0_d_6_6)">
<rect x="8" y="8" width="77" height="77" rx="20" fill="white"/>
<rect x="8.75" y="8.75" width="75.5" height="75.5" rx="19.25" stroke="url(#paint0_linear_6_6)" stroke-width="1.5"/>
</g>
<path d="M38.1897 67.9978C37.6183 67.7866 37.3053 67.3608 37.117 66.7938C36.6431 65.3709 36.1319 63.9578 35.6623 62.5338C35.5529 62.1868 35.4171 62.0959 35.0516 62.2054C33.7239 62.6235 32.3896 63.0165 31.052 63.4018C30.0746 63.6831 29.2515 63.1927 29.0293 62.2273C28.9297 61.7895 29.0993 61.4228 29.3073 61.0649C30.5077 58.9991 31.7117 56.9347 32.9194 54.8718C33.4666 53.9404 33.9964 53.0045 34.5535 52.0807C34.6969 51.8443 34.6915 51.6856 34.513 51.4689C32.8274 49.4111 31.7143 47.0731 31.2633 44.4516C30.4303 39.6082 31.5829 35.2639 34.7451 31.5008C37.0349 28.7764 39.9596 27.0229 43.4545 26.3378C48.4468 25.3603 52.9444 26.5008 56.8289 29.8053C59.8072 32.3403 61.5826 35.5955 62.1069 39.467C62.6969 43.8244 61.6155 47.7758 58.9152 51.2609C58.6963 51.5422 58.6667 51.7305 58.8528 52.0446C60.5785 54.9729 62.2934 57.9078 63.9972 60.8492C64.238 61.2608 64.5007 61.6691 64.4066 62.1857C64.369 62.4082 64.2837 62.62 64.1566 62.8064C64.0295 62.9929 63.8635 63.1497 63.6701 63.266C63.4768 63.3824 63.2605 63.4555 63.0362 63.4804C62.8119 63.5054 62.5849 63.4815 62.3707 63.4105C61.0452 62.9891 59.7011 62.6224 58.3745 62.2065C58.01 62.097 57.8786 62.1868 57.7637 62.5349C57.293 63.9578 56.7786 65.372 56.309 66.796C56.1208 67.363 55.8077 67.7888 55.2364 68H54.3355C53.961 67.8616 53.6471 67.5958 53.4489 67.2491C52.292 65.2231 51.1241 63.1993 49.9715 61.1732C49.5337 60.407 49.7592 59.5204 50.4674 59.1023C51.2149 58.6645 52.0796 58.8834 52.5558 59.6496C52.8776 60.1728 53.1709 60.7124 53.4774 61.2444L54.3979 62.8381C54.572 62.6958 54.5873 62.525 54.6398 62.3772C54.92 61.5782 55.1871 60.777 55.4684 59.9791C55.8548 58.8681 56.5214 58.5321 57.6575 58.867L59.6157 59.4416C59.6266 59.2709 59.5325 59.18 59.4734 59.0782C58.5474 57.486 57.6192 55.8945 56.6888 54.3038C56.4086 53.8222 56.4064 53.8222 55.9631 54.1472C52.5448 56.6483 48.7259 57.6356 44.5337 57.1026C41.9196 56.7709 39.4381 55.7594 37.337 54.1691C37.0349 53.9426 36.909 53.9743 36.7273 54.2961C36.0706 55.4618 35.3876 56.6111 34.7133 57.7659C34.4003 58.3044 34.0862 58.8429 33.7282 59.4635C34.5492 59.2227 35.2727 58.9972 36.0038 58.7991C36.8696 58.5649 37.591 58.9425 37.892 59.7842C38.2006 60.6446 38.4885 61.5125 38.7917 62.3751C38.8442 62.5228 38.8595 62.6936 39.0007 62.8129C39.1606 62.7034 39.2197 62.5305 39.3007 62.3816C39.7713 61.5662 40.2343 60.7464 40.705 59.9298C41.1866 59.0936 42.0721 58.8112 42.8218 59.249C43.5716 59.6868 43.796 60.5898 43.321 61.4217C42.2395 63.3186 41.1461 65.2078 40.0679 67.1068C39.8359 67.5151 39.5404 67.8314 39.096 67.9978H38.1897ZM59.2271 41.6288C59.3048 34.8064 53.6361 29.0413 46.6802 29.0107C39.698 28.9811 34.0161 34.7374 34.0019 41.5981C33.9887 48.5168 39.7253 54.2381 46.6276 54.2359C53.5474 54.2326 59.2961 48.5059 59.2271 41.6288Z" fill="#FE750F"/>
<path d="M55.9906 39.12C56.0146 39.5907 55.8132 39.9596 55.4849 40.2814C54.5206 41.2282 53.565 42.1848 52.5963 43.1272C52.3697 43.3461 52.2822 43.5519 52.3511 43.8825C52.6313 45.231 52.8776 46.5849 53.1305 47.9389C53.2399 48.5486 53.032 49.0455 52.5449 49.41C52.0578 49.7745 51.516 49.8161 50.9632 49.5457C49.7242 48.9393 48.4819 48.3417 47.2538 47.7167C47.1098 47.6303 46.9446 47.5859 46.7767 47.5884C46.6088 47.5909 46.445 47.6403 46.3037 47.731C45.1216 48.3877 43.9252 49.0127 42.7311 49.6464C42.349 49.85 41.9517 49.9496 41.5106 49.8413C40.7444 49.6508 40.2814 49.0028 40.404 48.2213C40.6229 46.8082 40.8418 45.3941 41.087 43.9843C41.1407 43.669 40.994 43.5016 40.7959 43.321C39.8184 42.4289 38.853 41.5215 37.8646 40.6404C37.3436 40.1763 37.1171 39.6279 37.3174 38.9591C37.5177 38.2904 37.9938 37.974 38.6669 37.8755C39.9881 37.6785 41.3037 37.4487 42.6249 37.2527C42.9937 37.198 43.228 37.0557 43.3911 36.7C43.9384 35.5113 44.5338 34.3412 45.0975 33.1591C45.3799 32.5647 45.8155 32.1904 46.4854 32.174C47.1553 32.1575 47.6314 32.51 47.9433 33.1142C48.5563 34.3029 49.1988 35.4773 49.815 36.6639C49.8664 36.7874 49.952 36.8936 50.0617 36.9701C50.1715 37.0465 50.3009 37.0899 50.4346 37.0951C51.8159 37.2396 53.1961 37.4125 54.5731 37.5997C55.4695 37.7256 55.9873 38.3013 55.9906 39.12ZM49.5983 45.5287C49.4527 44.7527 49.3378 44.0565 49.189 43.368C49.1149 43.0826 49.1214 42.7822 49.2075 42.5001C49.2937 42.2181 49.4562 41.9654 49.6771 41.77C50.1149 41.3529 50.5342 40.9283 50.9578 40.5036C51.0213 40.4401 51.1406 40.3821 51.0935 40.2748C51.0464 40.1675 50.9359 40.1829 50.8406 40.1719C50.3262 40.1128 49.8129 40.0362 49.2973 40.0001C48.4786 39.9421 47.8853 39.5995 47.5362 38.8212C47.2669 38.217 46.9232 37.6457 46.5806 36.9988C46.2282 37.7256 45.9075 38.3856 45.5889 39.0456C45.3284 39.5852 44.9322 39.9311 44.3171 40.0187C43.7019 40.1062 43.0802 40.2201 42.4629 40.3241C42.3534 40.3416 42.2068 40.2967 42.1684 40.4149C42.1225 40.5583 42.2932 40.6043 42.3753 40.682C42.8317 41.1121 43.3024 41.5281 43.7545 41.9637C43.9468 42.1393 44.0903 42.3619 44.1709 42.6096C44.2515 42.8572 44.2664 43.1216 44.2142 43.3768C44.0916 44.0948 43.9953 44.8172 43.8716 45.6272C44.4834 45.2988 45.0406 45.0416 45.5528 44.7154C46.3387 44.2141 47.0852 44.1966 47.8919 44.6782C48.4118 44.9913 48.9799 45.2244 49.5983 45.5287V45.5287Z" fill="#FE750F"/>
<defs>
<filter id="filter0_d_6_6" x="0.222222" y="0.222222" width="92.5556" height="92.5556" filterUnits="userSpaceOnUse" color-interpolation-filters="sRGB">
<feFlood flood-opacity="0" result="BackgroundImageFix"/>
<feColorMatrix in="SourceAlpha" type="matrix" values="0 0 0 0 0 0 0 0 0 0 0 0 0 0 0 0 0 0 127 0" result="hardAlpha"/>
<feOffset/>
<feGaussianBlur stdDeviation="3.88889"/>
<feComposite in2="hardAlpha" operator="out"/>
<feColorMatrix type="matrix" values="0 0 0 0 0 0 0 0 0 0 0 0 0 0 0 0 0 0 0.1 0"/>
<feBlend mode="normal" in2="BackgroundImageFix" result="effect1_dropShadow_6_6"/>
<feBlend mode="normal" in="SourceGraphic" in2="effect1_dropShadow_6_6" result="shape"/>
</filter>
<linearGradient id="paint0_linear_6_6" x1="85" y1="8" x2="46.8889" y2="43.3889" gradientUnits="userSpaceOnUse">
<stop stop-color="#FE750F"/>
<stop offset="1" stop-color="#FE750F" stop-opacity="0"/>
</linearGradient>
</defs>
</svg>
