<svg width="54" height="20" viewBox="0 0 54 20" fill="none" xmlns="http://www.w3.org/2000/svg">
<path d="M2 8.75C1.30964 8.75 0.75 9.30964 0.75 10C0.75 10.6904 1.30964 11.25 2 11.25V8.75ZM52.8839 10.8839C53.372 10.3957 53.372 9.60427 52.8839 9.11612L44.9289 1.16117C44.4408 0.67301 43.6493 0.67301 43.1612 1.16117C42.673 1.64932 42.673 2.44078 43.1612 2.92893L50.2322 10L43.1612 17.0711C42.673 17.5592 42.673 18.3507 43.1612 18.8388C43.6493 19.327 44.4408 19.327 44.9289 18.8388L52.8839 10.8839ZM2 11.25H52V8.75H2V11.25Z" fill="url(#paint0_linear_104_36)"/>
<defs>
<linearGradient id="paint0_linear_104_36" x1="-5.65823" y1="10.4987" x2="59.1519" y2="10.4987" gradientUnits="userSpaceOnUse">
<stop stop-color="#FF7E0A"/>
<stop offset="1" stop-color="#F1362C"/>
</linearGradient>
</defs>
</svg>
