<svg width="22" height="18" viewBox="0 0 22 18" fill="none" xmlns="http://www.w3.org/2000/svg">
<path d="M18.7 0H3.3C2.42479 0 1.58542 0.355579 0.966548 0.988515C0.347678 1.62145 0 2.47989 0 3.375V14.625C0 15.5201 0.347678 16.3786 0.966548 17.0115C1.58542 17.6444 2.42479 18 3.3 18H18.7C19.5752 18 20.4146 17.6444 21.0335 17.0115C21.6523 16.3786 22 15.5201 22 14.625V3.375C22 2.47989 21.6523 1.62145 21.0335 0.988515C20.4146 0.355579 19.5752 0 18.7 0ZM18.249 2.25L11.781 8.865C11.6787 8.97044 11.5571 9.05414 11.423 9.11125C11.289 9.16837 11.1452 9.19777 11 9.19777C10.8548 9.19777 10.711 9.16837 10.577 9.11125C10.4429 9.05414 10.3213 8.97044 10.219 8.865L3.751 2.25H18.249ZM19.8 14.625C19.8 14.9234 19.6841 15.2095 19.4778 15.4205C19.2715 15.6315 18.9917 15.75 18.7 15.75H3.3C3.00826 15.75 2.72847 15.6315 2.52218 15.4205C2.31589 15.2095 2.2 14.9234 2.2 14.625V3.83625L8.668 10.4513C9.28675 11.0833 10.1255 11.4383 11 11.4383C11.8745 11.4383 12.7132 11.0833 13.332 10.4513L19.8 3.83625V14.625Z" fill="#B2B2B2"/>
</svg>
