<svg width="27" height="30" viewBox="0 0 27 30" fill="none" xmlns="http://www.w3.org/2000/svg">
<path d="M9.75 25.2632C9.30499 25.2632 8.86998 25.4021 8.49997 25.6623C8.12996 25.9226 7.84157 26.2925 7.67127 26.7252C7.50097 27.158 7.45642 27.6342 7.54323 28.0936C7.63005 28.5531 7.84434 28.9751 8.15901 29.3063C8.47368 29.6375 8.87459 29.8631 9.31105 29.9545C9.7475 30.0459 10.1999 29.999 10.611 29.8197C11.0222 29.6405 11.3736 29.3369 11.6208 28.9474C11.868 28.5579 12 28.1 12 27.6316C12 27.0034 11.7629 26.401 11.341 25.9569C10.919 25.5127 10.3467 25.2632 9.75 25.2632ZM25.5 20.5263H7.5C7.10218 20.5263 6.72064 20.36 6.43934 20.0639C6.15804 19.7677 6 19.3661 6 18.9474C6 18.5286 6.15804 18.127 6.43934 17.8309C6.72064 17.5348 7.10218 17.3684 7.5 17.3684H20.2368C21.2139 17.3651 22.1637 17.0286 22.9439 16.4092C23.724 15.7898 24.2924 14.921 24.564 13.933L26.9421 5.17089C27.0059 4.9359 27.0171 4.68853 26.9746 4.44825C26.9321 4.20797 26.8373 3.98134 26.6975 3.78621C26.5577 3.59107 26.3768 3.43276 26.169 3.32373C25.9612 3.2147 25.7322 3.15793 25.5 3.15789H7.1086C6.79809 2.23793 6.22566 1.44112 5.46934 0.876022C4.71301 0.310923 3.80956 0.00502223 2.88209 0H1.5C1.10218 0 0.720644 0.166353 0.43934 0.462463C0.158035 0.758573 0 1.16018 0 1.57895C0 1.99771 0.158035 2.39932 0.43934 2.69543C0.720644 2.99154 1.10218 3.15789 1.5 3.15789H2.88209C3.20771 3.15909 3.5242 3.27129 3.78418 3.47768C4.04416 3.68407 4.23362 3.97356 4.32421 4.30279L4.5575 5.16291L4.55785 5.17089L7.0188 14.2375C5.87364 14.3672 4.81931 14.9541 4.0729 15.8775C3.32649 16.8008 2.94482 17.9903 3.00649 19.2009C3.06816 20.4115 3.56847 21.5512 4.40439 22.3853C5.24032 23.2193 6.34824 23.6842 7.5 23.6842H25.5C25.8978 23.6842 26.2794 23.5179 26.5607 23.2218C26.842 22.9256 27 22.524 27 22.1053C27 21.6865 26.842 21.2849 26.5607 20.9888C26.2794 20.6927 25.8978 20.5263 25.5 20.5263ZM23.5115 6.31579L21.6797 13.0649C21.5892 13.3944 21.3997 13.6841 21.1395 13.8907C20.8794 14.0972 20.5627 14.2094 20.2368 14.2105H10.1316L9.74917 12.8018L7.98963 6.31579H23.5115ZM21.75 25.2632C21.305 25.2632 20.87 25.4021 20.5 25.6623C20.13 25.9226 19.8416 26.2925 19.6713 26.7252C19.501 27.158 19.4564 27.6342 19.5432 28.0936C19.63 28.5531 19.8443 28.9751 20.159 29.3063C20.4737 29.6375 20.8746 29.8631 21.311 29.9545C21.7475 30.0459 22.1999 29.999 22.611 29.8197C23.0222 29.6405 23.3736 29.3369 23.6208 28.9474C23.868 28.5579 24 28.1 24 27.6316C24 27.0034 23.7629 26.401 23.341 25.9569C22.919 25.5127 22.3467 25.2632 21.75 25.2632Z" fill="white"/>
</svg>
