<svg width="93" height="93" viewBox="0 0 93 93" fill="none" xmlns="http://www.w3.org/2000/svg">
<g filter="url(#filter0_d_7_11)">
<rect x="8" y="8" width="77" height="77" rx="20" fill="white"/>
<rect x="8.75" y="8.75" width="75.5" height="75.5" rx="19.25" stroke="url(#paint0_linear_7_11)" stroke-width="1.5"/>
</g>
<path d="M67.956 31.6213C67.7033 32.7166 67.3734 33.7797 66.7751 34.7483C65.963 36.0526 64.8565 37.1483 63.5444 37.9477C63.2712 38.1173 63.1642 38.2769 63.2029 38.6283C63.4959 41.2835 63.7702 43.9415 64.0258 46.6022C64.2134 48.6051 63.7032 50.4254 62.2739 51.8687C59.6052 54.5695 56.8839 57.2176 54.179 59.8846C53.6713 60.3849 53.0598 60.5701 52.3735 60.3166C51.7152 60.0698 51.3301 59.5842 51.261 58.8782C51.2017 58.275 51.47 57.8002 51.8897 57.3887C53.4203 55.8861 54.9489 54.3819 56.4757 52.876C57.4632 51.8975 58.4293 50.8854 59.4563 49.9456C60.5104 48.9804 60.7729 47.8061 60.6165 46.4532C60.4396 44.9506 60.3014 43.4431 60.1483 41.938C60.0874 41.3414 60.0364 40.7431 59.9722 40.1465C59.9212 39.6692 59.8677 39.6429 59.4069 39.7696C58.0499 40.1432 56.6781 40.4518 55.266 40.4946C54.3057 40.5242 53.6063 39.8511 53.5281 38.8949C53.4598 38.0613 54.1354 37.2795 55.0504 37.1668C56.4609 36.9932 57.8557 36.7554 59.2069 36.2954C59.4702 36.2057 59.597 36.1044 59.5188 35.8016C59.4616 35.5624 59.4359 35.3167 59.4423 35.0709C59.4423 34.7253 59.2489 34.6314 58.9567 34.6026C56.6773 34.3832 54.3982 34.1591 52.1193 33.9303C50.383 33.7551 48.6499 33.5518 46.9128 33.388C46.0767 33.3058 45.3229 33.5823 44.6572 34.0842C44.4429 34.2538 44.24 34.4375 44.0499 34.6339C39.5514 39.1193 35.0529 43.6054 30.5543 48.0924C29.9676 48.6775 29.5389 49.3268 29.441 50.1777C29.3192 51.2417 29.6286 52.1526 30.3741 52.9023C33.9318 56.4737 37.4961 60.0396 41.0669 63.6C42.3909 64.9166 44.1487 64.9438 45.6044 63.7317C46.2191 63.2198 46.8749 63.0355 47.609 63.3934C48.7347 63.9407 48.8655 65.3528 47.8887 66.2325C45.1888 68.6633 41.299 68.5892 38.6723 65.9955C35.097 62.4619 31.5435 58.9059 28.0116 55.3274C25.296 52.5674 25.3405 48.5228 28.0807 45.7859C32.6725 41.2007 37.2695 36.6199 41.8717 32.0434C43.5463 30.3705 45.5525 29.806 47.8632 30.0899C49.3239 30.2701 50.7928 30.3861 52.2583 30.5334C53.18 30.6256 54.1041 30.7103 55.0233 30.8264C55.2948 30.8609 55.4537 30.805 55.5936 30.568C56.7555 28.593 58.556 27.436 60.6544 26.6913C61.8534 26.2658 63.0721 25.9647 64.3731 26.0033C65.7893 26.0461 66.7529 26.744 67.4902 27.8689C67.7017 28.1914 67.8079 28.5626 67.9543 28.9156L67.956 31.6213ZM62.7717 34.2834C62.8431 34.24 62.9113 34.1916 62.9758 34.1385C64.1427 32.9634 64.722 31.5522 64.6537 29.8899C64.6364 29.4719 64.4068 29.281 63.9715 29.3369C62.5454 29.5229 61.2057 29.9615 59.992 30.7465C59.7945 30.8741 59.6208 31.0403 59.3624 31.2469C59.9813 31.3168 60.4923 31.3802 61.0082 31.4304C61.8311 31.5127 62.4187 32.0006 62.5792 32.8021C62.6721 33.2671 62.7059 33.7444 62.775 34.2834H62.7717Z" fill="#F33F28"/>
<path d="M43.6919 56.7485C42.8384 56.7396 42.0052 56.4875 41.2899 56.0219C41.0093 55.8375 40.8126 55.8301 40.5953 56.0992C40.4541 56.2661 40.2939 56.4161 40.1181 56.5461C39.791 56.8 39.3815 56.9238 38.9685 56.8934C38.5556 56.863 38.1685 56.6806 37.8822 56.3815C37.298 55.7832 37.1902 54.7785 37.7999 54.1917C38.376 53.6412 38.3686 53.2808 37.9645 52.5986C37.0223 51.0211 37.3062 49.2296 38.548 47.876C38.8323 47.5657 39.2219 47.3723 39.641 47.3335C40.0601 47.2947 40.4786 47.4133 40.815 47.6661C41.5137 48.1887 41.6857 49.1342 41.2166 49.8987C41.1343 50.0377 41.0191 50.1603 40.9335 50.2994C40.7221 50.6442 40.8068 50.9577 41.0701 51.2301C41.6528 51.8259 42.2346 52.4225 42.8419 52.9928C43.3636 53.4865 44.0762 53.4561 44.5699 52.9673C45.1114 52.4307 45.1591 51.7214 44.6629 51.1684C44.2893 50.752 43.8672 50.3784 43.4977 49.9596C41.7112 47.936 41.7754 45.3151 43.6368 43.3533C44.5214 42.421 45.5912 41.868 46.8749 41.7898C47.6032 41.7462 48.3355 41.854 48.9774 42.2087C49.4102 42.4473 49.6448 42.356 49.9295 42.0038C50.2899 41.5577 50.7483 41.2492 51.3671 41.2574C52.0633 41.2673 52.5768 41.5726 52.8845 42.1873C53.1923 42.802 53.1158 43.4093 52.7051 43.9598C52.557 44.1562 52.3878 44.3358 52.2007 44.4955C51.976 44.6889 51.9538 44.8494 52.1184 45.1184C52.5569 45.859 52.7457 46.7209 52.6568 47.5769C52.5679 48.433 52.206 49.2377 51.6247 49.8723C51.1474 50.399 50.5664 50.6376 49.8579 50.4278C49.1494 50.218 48.7404 49.7193 48.6326 48.991C48.5627 48.5178 48.7363 48.1072 49.0169 47.7344C49.3716 47.2621 49.3674 46.9346 48.9692 46.5001C48.6754 46.1775 48.3676 45.8656 48.0434 45.5735C47.4205 45.0123 46.7621 45.0411 46.1557 45.6336C45.4974 46.2763 45.4151 47.0053 45.9524 47.6324C46.2552 47.983 46.6009 48.2965 46.9267 48.6265C48.2705 49.9884 48.7643 51.6037 48.1611 53.4297C47.5653 55.2269 46.2758 56.3263 44.3938 56.6843C44.156 56.723 43.9215 56.7263 43.6919 56.7485Z" fill="#F33F28"/>
<defs>
<filter id="filter0_d_7_11" x="0.222222" y="0.222222" width="92.5556" height="92.5556" filterUnits="userSpaceOnUse" color-interpolation-filters="sRGB">
<feFlood flood-opacity="0" result="BackgroundImageFix"/>
<feColorMatrix in="SourceAlpha" type="matrix" values="0 0 0 0 0 0 0 0 0 0 0 0 0 0 0 0 0 0 127 0" result="hardAlpha"/>
<feOffset/>
<feGaussianBlur stdDeviation="3.88889"/>
<feComposite in2="hardAlpha" operator="out"/>
<feColorMatrix type="matrix" values="0 0 0 0 0 0 0 0 0 0 0 0 0 0 0 0 0 0 0.1 0"/>
<feBlend mode="normal" in2="BackgroundImageFix" result="effect1_dropShadow_7_11"/>
<feBlend mode="normal" in="SourceGraphic" in2="effect1_dropShadow_7_11" result="shape"/>
</filter>
<linearGradient id="paint0_linear_7_11" x1="85" y1="43.3889" x2="46.8889" y2="43.3889" gradientUnits="userSpaceOnUse">
<stop stop-color="#F33F28"/>
<stop offset="1" stop-color="#F33F28" stop-opacity="0"/>
</linearGradient>
</defs>
</svg>
