<svg width="25" height="25" viewBox="0 0 25 25" fill="none" xmlns="http://www.w3.org/2000/svg">
<path d="M14.2827 12.7657L22.2145 4.83397C22.6263 4.42217 22.6263 3.75039 22.2145 3.317C21.8027 2.88361 21.1309 2.9052 20.6975 3.317L12.7657 11.2488L4.83397 3.317C4.42217 2.9052 3.75039 2.9052 3.317 3.317C2.88361 3.7288 2.9052 4.40057 3.317 4.83397L11.2488 12.7657L3.317 20.6975C2.9052 21.1093 2.9052 21.7811 3.317 22.2145C3.53377 22.4313 3.79377 22.5179 4.07558 22.5179C4.35739 22.5179 4.61737 22.4095 4.83416 22.2145L12.7659 14.2827L20.6977 22.2145C20.9145 22.4313 21.1745 22.5179 21.4563 22.5179C21.7381 22.5179 21.9981 22.4095 22.2149 22.2145C22.6267 21.8027 22.6267 21.1309 22.2149 20.6975L14.2827 12.7657Z" fill="white"/>
</svg>
